<?xml version="1.0" encoding="UTF-8" standalone="no"?>
<svg
   xmlns:dc="http://purl.org/dc/elements/1.1/"
   xmlns:cc="http://creativecommons.org/ns#"
   xmlns:rdf="http://www.w3.org/1999/02/22-rdf-syntax-ns#"
   xmlns:svg="http://www.w3.org/2000/svg"
   xmlns="http://www.w3.org/2000/svg"
   xmlns:sodipodi="http://sodipodi.sourceforge.net/DTD/sodipodi-0.dtd"
   xmlns:inkscape="http://www.inkscape.org/namespaces/inkscape"
   id="Shape_38_copy_1_"
   width="25"
   height="23"
   viewBox="0 0 25 23"
   version="1.1"
   inkscape:version="0.91 r13725"
   sodipodi:docname="bedrooms.svg">
  <metadata
     id="metadata10">
    <rdf:RDF>
      <cc:Work
         rdf:about="">
        <dc:format>image/svg+xml</dc:format>
        <dc:type
           rdf:resource="http://purl.org/dc/dcmitype/StillImage" />
      </cc:Work>
    </rdf:RDF>
  </metadata>
  <defs
     id="defs8" />
  <sodipodi:namedview
     pagecolor="#ffffff"
     bordercolor="#666666"
     borderopacity="1"
     objecttolerance="10"
     gridtolerance="10"
     guidetolerance="10"
     inkscape:pageopacity="0"
     inkscape:pageshadow="2"
     inkscape:window-width="640"
     inkscape:window-height="480"
     id="namedview6"
     showgrid="false"
     inkscape:zoom="10.26087"
     inkscape:cx="12.5"
     inkscape:cy="11.5"
     inkscape:window-x="10"
     inkscape:window-y="34"
     inkscape:window-maximized="0"
     inkscape:current-layer="Shape_38_copy_1_" />
  <style
     id="style3">.st0{fill-rule:evenodd;clip-rule:evenodd;fill:#FFFFFF;}</style>
  <path
     class="st0"
     d="M24.854 13.006l-2.15-2.15V1.36H2.353v9.438l-2.208 2.21.354.352v8h1v-1.612h22v1.612h1v-8l.354-.354zM3.354 2.36H21.76v7.74l-.26.26v-.682h-1.596V8.195c0-1.105-1.358-2.23-2.463-2.23h-1.957c-1.105 0-2.03 1.126-2.03 2.23v1.483h-1.9V7.66c0-.945-.768-1.71-1.714-1.71H6.932c-.946 0-1.713.766-1.713 1.71V9.68H3.5v.682l-.145-.145V2.36zM18.96 7.028v2.346H14.48V7.028h4.478zM10.632 7v2.344H6.257V7h4.375zM23.5 18.748h-22V14.36h22v4.388zM1.207 13.36l2-2h.148v-.148l.498-.498-.036-.036H21.18l-.035.036.614.614v.033h.032l2 2H1.207z"
     id="Shape_38_copy"
     style="fill:#000000" />
</svg>
